<svg width="216" height="74" viewBox="0 0 216 74" fill="none" xmlns="http://www.w3.org/2000/svg">
<path d="M17.8148 37L18.824 43.1527C19.7266 48.6558 24.022 52.9688 29.5022 53.8752L35.6295 54.8887L29.5022 55.9022C24.022 56.8085 19.7266 61.1217 18.824 66.6246L17.8148 72.7773L16.8054 66.6246C15.9028 61.1217 11.6075 56.8085 6.12729 55.9022L0 54.8887L6.12729 53.8752C11.6075 52.9688 15.9028 48.6558 16.8054 43.1527L17.8148 37Z" fill="url(#paint0_linear_9_1460)"/>
<path d="M196.968 37L197.977 43.1527C198.88 48.6558 203.175 52.9688 208.655 53.8752L214.783 54.8887L208.655 55.9022C203.175 56.8085 198.88 61.1217 197.977 66.6246L196.968 72.7773L195.959 66.6246C195.056 61.1217 190.761 56.8085 185.28 55.9022L179.153 54.8887L185.28 53.8752C190.761 52.9688 195.056 48.6558 195.959 43.1527L196.968 37Z" fill="url(#paint1_linear_9_1460)"/>
<path d="M105.534 0L107.041 9.18938C108.389 17.4084 114.805 23.8502 122.99 25.204L132.141 26.7177L122.99 28.2313C114.805 29.5851 108.389 36.0269 107.041 44.2459L105.534 53.4353L104.026 44.2459C102.678 36.0269 96.2631 29.5851 88.0781 28.2313L78.9266 26.7177L88.0781 25.204C96.2631 23.8502 102.678 17.4084 104.026 9.18938L105.534 0Z" fill="#FBC418"/>
<defs>
<linearGradient id="paint0_linear_9_1460" x1="31.6925" y1="37" x2="3.13076" y2="42.9903" gradientUnits="userSpaceOnUse">
<stop stop-color="#FFD44F"/>
<stop offset="1" stop-color="#FF8A01"/>
</linearGradient>
<linearGradient id="paint1_linear_9_1460" x1="210.845" y1="37" x2="182.284" y2="42.9903" gradientUnits="userSpaceOnUse">
<stop stop-color="#FFD44F"/>
<stop offset="1" stop-color="#FF8A01"/>
</linearGradient>
</defs>
</svg>
