<svg width="18" height="20" viewBox="0 0 18 20" fill="none" xmlns="http://www.w3.org/2000/svg">
<path fill-rule="evenodd" clip-rule="evenodd" d="M12.4813 0.229027C12.496 0.20935 12.5251 0.204567 12.5461 0.218345L13.984 1.16038C14.005 1.17416 14.0101 1.20127 13.9953 1.22096L11.9941 3.89518C12.9671 4.18601 13.6298 4.49972 13.6298 4.49972C13.6298 4.49972 12.0097 7.10732 9.26171 7.10732C6.51372 7.10732 4.56102 4.67698 4.56102 4.67698C4.56102 4.67698 5.25341 4.26354 6.27976 3.90894L4.08466 1.46123C4.06817 1.44282 4.07075 1.41539 4.0904 1.39995L5.43503 0.344244C5.45472 0.328803 5.48403 0.331203 5.50053 0.349605L8.27988 3.44884C8.51786 3.42365 8.76031 3.40957 9.00497 3.40957C9.35662 3.40957 9.70785 3.43459 10.0507 3.47703L12.4813 0.229027ZM13.025 7.23081C13.7583 6.74076 14.868 5.46172 14.868 5.46172C14.868 5.46172 17.7024 7.56335 17.7024 12.0196C17.7024 16.4758 12.8022 19.1579 12.8022 19.1579C12.8022 19.1579 10.4609 16.9455 9.88614 14.1411C9.31142 11.3366 10.7363 8.22263 10.7363 8.22263C10.7363 8.22263 12.2916 7.72085 13.025 7.23081ZM5.12728 7.23081C4.39396 6.74076 3.2843 5.46172 3.2843 5.46172C3.2843 5.46172 0.44989 7.56335 0.44989 12.0196C0.44989 16.4758 5.35015 19.1579 5.35015 19.1579C5.35015 19.1579 7.6914 16.9455 8.26615 14.1411C8.84088 11.3366 7.41595 8.22263 7.41595 8.22263C7.41595 8.22263 5.86064 7.72085 5.12728 7.23081Z" fill="black"/>
</svg>
