<svg width="20" height="20" viewBox="0 0 20 20" fill="none" xmlns="http://www.w3.org/2000/svg">
<path fill-rule="evenodd" clip-rule="evenodd" d="M8.71197 16.969C9.07194 17.024 9.4406 17.0525 9.81599 17.0525C13.8127 17.0525 17.0528 13.8125 17.0528 9.81576C17.0528 5.81894 13.8127 2.5789 9.81599 2.5789C9.54785 2.5789 9.28307 2.59349 9.0225 2.62191C11.0051 4.12396 12.316 6.72593 12.316 9.68416C12.316 12.7942 10.8671 15.5105 8.71197 16.969ZM9.68439 19.1579C14.9165 19.1579 19.1581 14.9163 19.1581 9.68416C19.1581 4.45198 14.9165 0.21048 9.68439 0.21048C4.45222 0.21048 0.210724 4.45198 0.210724 9.68416C0.210724 14.9163 4.45222 19.1579 9.68439 19.1579Z" fill="black"/>
</svg>
