<svg width="20" height="20" viewBox="0 0 20 20" fill="none" xmlns="http://www.w3.org/2000/svg">
<g clip-path="url(#clip0_34_3836)">
<path fill-rule="evenodd" clip-rule="evenodd" d="M4.01286 15.859L7.22086 14.9289L9.99166 19.9951C9.99529 20.0016 10.0047 20.0016 10.0083 19.9951L12.7791 14.9289L15.9871 15.859C15.9944 15.8611 16.001 15.8544 15.9989 15.8473L15.0685 12.7027L19.995 10.0083C20.0016 10.0047 20.0016 9.99529 19.9951 9.9917L15.0279 7.27505L15.9989 3.9933C16.001 3.98611 15.9944 3.97942 15.9871 3.9815L12.7039 4.93353L10.0083 0.00492939C10.0047 -0.00164301 9.99529 -0.00164319 9.9917 0.00492922L7.29614 4.93353L4.01286 3.9815C4.00567 3.97942 3.999 3.98611 4.00115 3.9933L4.97207 7.27505L0.00492939 9.9917C-0.00164301 9.99529 -0.00164319 10.0047 0.00492922 10.0083L4.93145 12.7027L4.00115 15.8473C3.999 15.8544 4.00567 15.8611 4.01286 15.859ZM6.50225 10.0346L8.77494 11.2775L10.0179 13.5501C10.0215 13.5568 10.031 13.5568 10.0345 13.5501L11.2775 11.2775L13.5501 10.0346C13.5567 10.031 13.5567 10.0215 13.5501 10.0179L11.2775 8.77494L10.0345 6.50229C10.031 6.49569 10.0215 6.49569 10.0179 6.50229L8.77494 8.77494L6.50225 10.0179C6.49569 10.0215 6.49569 10.031 6.50225 10.0346Z" fill="black"/>
</g>
<defs>
<clipPath id="clip0_34_3836">
<rect width="20" height="20" fill="white"/>
</clipPath>
</defs>
</svg>
