<svg width="20" height="26" viewBox="0 0 20 26" fill="none" xmlns="http://www.w3.org/2000/svg">
<g clip-path="url(#clip0_34_3815)">
<path fill-rule="evenodd" clip-rule="evenodd" d="M14.7633 19.0533C15.081 17.9833 14.4643 15.7836 14.4643 15.7836C14.4643 15.7836 14.017 17.5757 13.3181 18.2379C12.7218 18.8029 11.9913 19.1947 10.9437 19.2978C11.8002 18.9145 12.3893 18.1155 12.3893 17.192C12.3893 15.8955 11.2285 14.8445 9.79666 14.8445C8.3648 14.8445 7.20399 15.8955 7.20399 17.192C7.20399 17.5461 7.29062 17.8818 7.44566 18.1829C6.55007 17.5257 6.40926 16.4721 6.40926 16.4721C6.40926 16.4721 5.40922 20.2963 8.16476 22.0951C10.9203 23.8941 16.3181 22.3479 16.3181 22.3479C16.3181 22.3479 8.59342 27.3541 2.86928 21.9054C-2.06161 17.2118 1.5823 11.0326 1.5823 11.0326C1.5823 11.0326 1.42494 11.6058 1.42494 12.2712C1.42494 12.9366 1.81665 13.4429 1.81665 13.4429C1.81665 13.4429 2.98509 11.1745 3.89443 10.252C4.75506 9.37888 5.8339 8.67075 6.76575 8.05913C7.48303 7.58831 8.11323 7.17467 8.4896 6.78699C10.5627 4.65196 9.29156 0.763092 9.29156 0.763092C9.29156 0.763092 11.6285 2.6606 12.2809 5.11126C12.5296 6.04542 12.3695 7.10829 12.2265 8.05876C11.9943 9.60175 11.8066 10.8486 13.4843 10.7676C16.1954 10.6369 13.8395 6.78699 13.8395 6.78699C13.8395 6.78699 19.9894 9.76416 19.53 14.9711C19.0706 20.178 12.8078 21.3617 12.8078 21.3617C12.8078 21.3617 14.4454 20.1233 14.7633 19.0533Z" fill="black"/>
</g>
<defs>
<clipPath id="clip0_34_3815">
<rect width="20" height="25" fill="white" transform="translate(0 0.5)"/>
</clipPath>
</defs>
</svg>
