<svg width="20" height="20" viewBox="0 0 20 20" fill="none" xmlns="http://www.w3.org/2000/svg">
<path fill-rule="evenodd" clip-rule="evenodd" d="M6.98095 18.7555C9.91076 18.7555 12.4191 17.0187 13.4545 14.5564C13.4673 14.5264 9.29716 15.7124 9.43014 15.2932C9.48951 15.106 12.0458 14.1099 13.9081 12.9481C14.9786 12.2803 15.4715 10.8666 15.4715 10.8666C15.4715 10.8666 13.6681 11.8006 12.7564 12.0375C10.9192 12.515 9.30201 12.4636 9.30201 12.4138C9.30201 12.3063 11.9874 11.762 15.7197 9.33596C17.4752 8.19483 17.9521 6.22924 17.9521 6.22924C17.9521 6.22924 16.022 7.45557 14.8553 7.86045C12.0882 8.82057 9.5631 9.10992 9.5631 8.98C9.5631 8.70183 11.7853 8.05004 14.1412 6.83232C15.3662 6.1992 16.4271 5.37203 17.6566 4.45215C19.6683 2.94711 20 0.266602 20 0.266602C20 0.266602 18.0159 1.63161 17.0477 2.08492C13.0524 3.9554 9.52459 4.93657 6.98095 5.14899C3.14126 5.46965 0 8.32729 0 12.0375C0 15.7477 3.12548 18.7555 6.98095 18.7555Z" fill="black"/>
</svg>
