<svg width="20" height="20" viewBox="0 0 20 20" fill="none" xmlns="http://www.w3.org/2000/svg">
<g clip-path="url(#clip0_34_3811)">
<path fill-rule="evenodd" clip-rule="evenodd" d="M14.4121 19.9308C12.6081 20.0231 10.5428 20.0231 9.84094 19.9308C4.36601 19.2105 0 15.2075 0 9.79688C0 4.38621 4.47715 0 10 0C15.5229 0 20 4.38621 20 9.79688C20 12.3133 19.0315 14.6081 17.4399 16.3433C17.0076 16.8144 17.6006 17.1449 18.2033 17.4806C18.7941 17.81 19.3942 18.1444 19.0455 18.6216C18.6611 19.1474 16.5778 19.8199 14.4121 19.9308ZM8.59375 8.57226C8.59375 9.41765 7.89417 10.103 7.03125 10.103C6.16833 10.103 5.46875 9.41765 5.46875 8.57226C5.46875 8.00528 5.7834 7.51031 6.25094 7.24574C6.27785 7.98289 6.88395 8.57223 7.6277 8.57223H8.59375V8.57226ZM13.4366 7.24574C13.4096 7.98289 12.8035 8.57223 12.0598 8.57223H11.0938V8.57226C11.0938 9.41765 11.7933 10.103 12.6562 10.103C13.5191 10.103 14.2188 9.41765 14.2188 8.57226C14.2188 8.00528 13.9041 7.51031 13.4366 7.24574Z" fill="black"/>
</g>
<defs>
<clipPath id="clip0_34_3811">
<rect width="20" height="20" fill="white"/>
</clipPath>
</defs>
</svg>
