<svg width="20" height="20" viewBox="0 0 20 20" fill="none" xmlns="http://www.w3.org/2000/svg">
<g clip-path="url(#clip0_34_3823)">
<path fill-rule="evenodd" clip-rule="evenodd" d="M3.46955 17.4468C3.39829 17.3798 3.3278 17.3114 3.25814 17.2417C-0.419542 13.5641 -0.419541 7.60137 3.25814 3.92372C6.93579 0.246032 18.6542 0 18.6542 0C18.6542 0 20.2539 13.5641 16.5761 17.2417C13.3099 20.508 8.24132 20.8734 4.57182 18.338L7.52857 14.7095L12.2552 13.689L8.39689 13.3033L10.8489 10.8067L13.64 10.1953L11.433 9.54162L13.64 5.56014L10.5007 9.08141L9.2884 7.3707L9.71516 10.1953L7.52857 12.6602L6.515 9.54159V13.689L3.46955 17.4468Z" fill="black"/>
</g>
<defs>
<clipPath id="clip0_34_3823">
<rect width="20" height="20" fill="white"/>
</clipPath>
</defs>
</svg>
