<svg width="22" height="20" viewBox="0 0 22 20" fill="none" xmlns="http://www.w3.org/2000/svg">
<g clip-path="url(#clip0_34_3805)">
<path fill-rule="evenodd" clip-rule="evenodd" d="M4.84535 19.2582C4.83937 19.2582 4.8352 19.251 4.83718 19.2442L10.4539 0.00697933C10.4551 0.00279702 10.4584 0 10.462 0H16.4579C16.4616 0 16.4649 0.00281787 16.4662 0.00702622L21.9996 19.2442C22.0015 19.251 21.9972 19.2582 21.9913 19.2582H5.01413H4.84535ZM0.0086499 19.3333C0.00261733 19.3333 -0.00155914 19.326 0.00055691 19.3192L4.18313 5.78418C4.1844 5.78007 4.18763 5.77737 4.19123 5.77737H7.82541C7.83142 5.77737 7.8356 5.7846 7.83352 5.79143L3.7891 19.3265C3.78786 19.3307 3.7846 19.3333 3.78097 19.3333H0.0086499Z" fill="black"/>
</g>
<defs>
<clipPath id="clip0_34_3805">
<rect width="22" height="20" fill="white"/>
</clipPath>
</defs>
</svg>
