<svg width="24" height="20" viewBox="0 0 24 20" fill="none" xmlns="http://www.w3.org/2000/svg">
<path fill-rule="evenodd" clip-rule="evenodd" d="M17.6053 0.0259399L17.6747 6.36799L12.3643 9.02339L12.2988 3.03529L17.6053 0.0259399Z" fill="black"/>
<path fill-rule="evenodd" clip-rule="evenodd" d="M22.9288 10.0196L17.6719 13.1517L12.412 10.0146L17.6692 7.13806L22.9288 10.0196Z" fill="black"/>
<path fill-rule="evenodd" clip-rule="evenodd" d="M11.4766 10.0196L6.21977 13.1517L0.959778 10.0146L6.21703 7.13806L11.4766 10.0196Z" fill="black"/>
<path fill-rule="evenodd" clip-rule="evenodd" d="M6.16055 0L11.6168 2.81487L11.4773 8.94907L6.32558 6.29133L6.16055 0Z" fill="black"/>
<path fill-rule="evenodd" clip-rule="evenodd" d="M17.7539 19.9429L12.2976 17.128L12.4372 10.9938L17.5889 13.6516L17.7539 19.9429Z" fill="black"/>
<path fill-rule="evenodd" clip-rule="evenodd" d="M6.34884 20L6.27948 13.6579L11.5898 11.0025L11.6553 16.9905L6.34884 20Z" fill="black"/>
</svg>
