<svg width="20" height="20" viewBox="0 0 20 20" fill="none" xmlns="http://www.w3.org/2000/svg">
<g clip-path="url(#clip0_34_3807)">
<path fill-rule="evenodd" clip-rule="evenodd" d="M15.4422 9.29508C15.4411 9.29313 15.4406 9.29069 15.4409 9.2883L16.7142 0.00739671C16.7148 0.00312334 16.7178 0 16.7212 0H17.1242C17.1273 0 17.1301 0.00251924 17.131 0.00622251L19.9997 11.3599C20.0006 11.3634 19.9996 11.3673 19.9973 11.3695L17.8821 13.4338C17.879 13.4369 17.8744 13.4361 17.872 13.432L15.4422 9.29508ZM0 15.4476C0 15.4515 0.00198012 15.4549 0.00490746 15.4561L4.36499 17.2381C4.3671 17.239 4.36944 17.2385 4.37127 17.237L14.1171 8.82666C14.1187 8.82525 14.1198 8.82305 14.1201 8.82061L15.1652 0.0549839C15.1658 0.0496044 15.1625 0.0447706 15.1582 0.0447706H6.52579C6.52365 0.0447706 6.52166 0.0459499 6.5203 0.0479916L0.00163825 9.8777C0.000579269 9.87931 0 9.88131 0 9.88341V15.4476ZM6.18186 17.6921L10.9452 19.6425C10.9473 19.6434 10.9497 19.643 10.9515 19.6414L16.6226 14.5565C16.6257 14.5538 16.6265 14.5484 16.6243 14.5444L14.4984 10.5899C14.4962 10.5857 14.4918 10.5846 14.4885 10.5875L6.18186 17.6921Z" fill="black"/>
</g>
<defs>
<clipPath id="clip0_34_3807">
<rect width="20" height="20" fill="white"/>
</clipPath>
</defs>
</svg>
