<svg width="20" height="22" viewBox="0 0 20 22" fill="none" xmlns="http://www.w3.org/2000/svg">
<path fill-rule="evenodd" clip-rule="evenodd" d="M10.9293 10.607C11.0818 10.5209 11.2112 10.3404 11.3155 10.1398C12.6885 10.6596 13.6535 11.888 13.6535 13.3205C13.6535 15.2235 11.9506 16.7663 9.84999 16.7663C8.9877 16.7663 8.19241 16.5064 7.55446 16.0682C7.3452 15.9764 7.17301 15.8883 7.03213 15.816C6.81359 15.7042 6.67029 15.6308 6.58055 15.6422C6.31824 15.6758 6.3944 15.8993 6.46361 16.1024C6.51059 16.2404 6.5544 16.3689 6.48659 16.4218C6.41566 16.4774 6.18591 16.2744 5.91745 16.0374C5.55201 15.7146 5.11484 15.3286 4.90869 15.4445C4.7457 15.5362 4.90395 15.785 5.09765 16.0895L5.11203 16.1121C5.19385 16.2407 5.28869 16.3718 5.37521 16.4914C5.55113 16.7345 5.69281 16.9304 5.62193 16.9635C5.53623 17.0036 4.93919 16.6303 4.43606 16.1121C4.24186 15.912 4.05378 15.6953 3.87896 15.4938C3.49634 15.0527 3.17755 14.6853 2.99861 14.7289C2.78334 14.7812 2.94619 15.1925 3.18546 15.5883C3.29735 15.7734 3.42896 15.9619 3.54291 16.1251V16.1252C3.72015 16.3789 3.85466 16.5714 3.80589 16.5952C3.74005 16.627 3.16081 16.1039 2.76739 15.4445C2.53371 15.0529 2.33749 14.62 2.17864 14.2697C2.00636 13.8896 1.87804 13.6067 1.79355 13.5782C1.49996 13.4792 1.49996 14.0337 1.61771 14.8339C1.63308 14.9383 1.65594 15.0479 1.68411 15.1594C2.82599 18.5818 6.33375 21.0737 10.4839 21.0737C15.5604 21.0737 19.6755 17.3454 19.6755 12.7462C19.6755 8.3689 15.9478 4.78044 11.2113 4.44447C11.2173 4.23826 11.3335 3.82935 11.3335 3.82935C11.3335 3.82935 12.1696 1.95536 12.2139 1.55491C12.2168 1.52833 12.2202 1.49945 12.224 1.4687C12.276 1.03602 12.3729 0.231522 11.6258 0.231522C11.2268 0.231522 11.0412 0.506485 10.829 0.820958V0.820963C10.7475 0.941688 10.6621 1.06824 10.5592 1.18728C9.81792 2.04477 8.57145 3.11558 7.86468 3.68606C6.3708 4.89185 4.90514 5.88282 4.05031 6.46078L4.05026 6.46083C3.66148 6.72367 3.39909 6.90112 3.31788 6.97443C2.70589 7.52707 0.511603 11.1934 0.511603 11.1934C0.511603 11.1934 -0.198004 12.3697 0.0542201 12.6083C0.306444 12.8468 0.914683 12.7922 0.914683 12.7922C0.914683 12.7922 9.08592 11.0557 9.81748 10.9188C10.0144 10.8819 10.1535 10.8606 10.2602 10.8443C10.55 10.7999 10.6021 10.792 10.9293 10.607ZM5.15193 8.37557C4.71331 8.76176 3.98589 9.68358 3.98589 9.68358C3.98589 9.68358 5.33781 9.76072 6.08239 9.10513C6.82699 8.44949 6.6564 7.3322 6.6564 7.3322C6.6564 7.3322 5.5905 7.98938 5.15193 8.37557Z" fill="#2C6AC1"/>
</svg>
