<svg width="20" height="20" viewBox="0 0 20 20" fill="none" xmlns="http://www.w3.org/2000/svg">
<path fill-rule="evenodd" clip-rule="evenodd" d="M3.28244 1.66273C3.52449 0.707086 4.39023 0 5.42109 0C6.19434 0 6.87469 0.39784 7.26859 1H7.91363C8.31438 0.588734 8.87425 0.333334 9.49382 0.333334C10.4022 0.333334 11.1823 0.882351 11.5205 1.66666H12.0606C12.399 1.45541 12.7989 1.33334 13.2271 1.33334C14.1355 1.33334 14.9156 1.88235 15.2539 2.66666H16.7224C16.735 2.66666 16.7467 2.67005 16.7569 2.67594C16.8239 2.6698 16.8919 2.66666 16.9605 2.66666C18.1789 2.66666 19.1665 3.65435 19.1665 4.87274V11.4877L19.1666 11.5L19.1665 11.5123V11.6075C19.1665 11.6479 19.1654 11.6881 19.1632 11.7281C19.0305 16.3171 14.9041 20 9.8332 20C4.67855 20 0.499878 16.1944 0.499878 11.5C0.499878 9.23402 1.47351 7.17511 3.06056 5.65136C3.0566 7.86048 3.09391 10.1443 3.26593 10.1051C3.72649 10.0001 3.36664 3.15779 3.28244 1.66273Z" fill="#C44D61"/>
</svg>
