<svg width="20" height="20" viewBox="0 0 20 20" fill="none" xmlns="http://www.w3.org/2000/svg">
<g clip-path="url(#clip0_23_3649)">
<path fill-rule="evenodd" clip-rule="evenodd" d="M17.6081 16.6105C17.6081 16.6105 15.086 18.6334 10.0671 17.7963C6.25921 17.1613 4.22829 12.9636 4.22829 10.7074C4.22829 5.35796 8.18755 4.1406 10.8643 4.1406C13.541 4.1406 15.2871 6.75026 15.2871 8.77079C15.2871 10.7913 13.8581 12.5586 11.6341 12.5586C9.41021 12.5586 8.75155 10.9973 8.75155 9.5619C8.75155 8.1265 9.91289 7.62079 10.972 7.62079C12.0312 7.62079 12.3938 8.52503 12.3938 9.30218C12.3938 10.0794 11.7908 10.3577 11.2879 10.3577C10.7849 10.3577 10.7352 10.104 10.5427 9.83728C10.3502 9.57065 10.7882 8.56131 10.0671 8.56131C9.34588 8.56131 9.21145 9.72164 9.21145 9.72164C9.21145 9.72164 9.47436 11.9614 11.6341 11.9228C13.7939 11.8841 14.8185 10.2144 14.5208 8.56131C14.223 6.90818 12.6186 5.15154 9.80295 5.5065C6.98726 5.86145 5.83764 8.70645 6.34438 11.7468C6.85111 14.7871 10.4934 16.5488 13.3572 15.915C16.221 15.2811 19.0734 13.2079 19.0734 7.95138C19.0734 2.69478 14.5208 -0.464901 9.09225 0.0558319C3.66374 0.576562 0.293957 5.32252 0.509652 11.0249C0.725348 16.7272 6.13623 19.833 10.7117 19.993C15.2871 20.1531 18.0921 17.5045 18.0921 17.5045C18.0921 17.5045 18.7229 16.942 18.4756 16.5027C18.2283 16.0635 17.6081 16.6105 17.6081 16.6105Z" fill="#EB8B85"/>
</g>
<defs>
<clipPath id="clip0_23_3649">
<rect width="20" height="20" fill="white"/>
</clipPath>
</defs>
</svg>
