<svg width="24" height="20" viewBox="0 0 24 20" fill="none" xmlns="http://www.w3.org/2000/svg">
<path fill-rule="evenodd" clip-rule="evenodd" d="M0.96199 10.0142C0.959021 10.0089 0.95902 10.0024 0.961986 9.99705L6.57443 0.00836907C6.57734 0.00318777 6.5827 0 6.58846 0H17.7126C17.7184 0 17.7238 0.00321511 17.7266 0.00844183L23.2776 9.99714C23.2805 10.0024 23.2805 10.0089 23.2776 10.0141L17.7266 19.9915C17.7238 19.9968 17.7184 20 17.7126 20H6.58846C6.5827 20 6.57734 19.9969 6.57443 19.9916L0.96199 10.0142ZM17.2907 10C17.2907 12.9739 14.9764 15.3846 12.1216 15.3846C9.26664 15.3846 6.95229 12.9739 6.95229 10C6.95229 7.02614 9.26664 4.6154 12.1216 4.6154C14.9764 4.6154 17.2907 7.02614 17.2907 10Z" fill="#6594A1"/>
</svg>
