<svg width="18" height="24" viewBox="0 0 18 24" fill="none" xmlns="http://www.w3.org/2000/svg">
<path fill-rule="evenodd" clip-rule="evenodd" d="M17.5176 15.6413C17.5176 19.6996 13.5962 22.9895 8.75883 22.9895C3.92145 22.9895 0 19.6996 0 15.6413C0 11.6943 8.28504 0.854225 8.73942 0.26268C8.74982 0.249191 8.76791 0.249191 8.77824 0.262682C9.23262 0.854225 17.5176 11.6943 17.5176 15.6413ZM7.29876 20.6337C2.85411 19.8146 3.61469 15.6686 3.61469 15.6686C3.61469 15.6686 4.82837 18.1714 7.77366 18.9822C10.7189 19.7929 14.2782 18.6038 14.2782 18.6038C14.2782 18.6038 11.7434 21.4526 7.29876 20.6337Z" fill="#88A3D4"/>
</svg>
